<svg width="426" height="423" viewBox="0 0 426 423" fill="none" xmlns="http://www.w3.org/2000/svg">
<rect width="426" height="423" fill="white"/>
<rect x="101" y="31" width="80" height="320" rx="40" fill="#2447A2"/>
<rect x="196" y="118" width="80" height="233" rx="40" fill="#2447A2"/>
<rect x="295" y="196" width="80" height="155" rx="40" fill="#2447A2"/>
<rect x="75" y="299" width="83" height="83" rx="13" fill="#D6E3F2"/>
<rect x="173.5" y="298.5" width="44.46" height="44.46" rx="7.5" stroke="#D6E3F2" stroke-width="7"/>
<rect x="30.5" y="241.5" width="44.46" height="44.46" rx="7.5" stroke="#D6E3F2" stroke-width="7"/>
<rect x="126" y="236" width="51.46" height="51.46" rx="11" fill="#D6E3F2"/>
<rect x="99.5" y="212.5" width="26.9052" height="26.9052" rx="5.5" stroke="#D6E3F2" stroke-width="5"/>
<rect x="167.5" y="198.5" width="26.9052" height="26.9052" rx="5.5" stroke="#D6E3F2" stroke-width="5"/>
<rect x="120" y="164" width="31.9052" height="31.9052" rx="8" fill="#D6E3F2"/>
<rect x="65" y="180" width="31.9052" height="31.9052" rx="8" fill="#D6E3F2"/>
<path d="M145.261 75.1818H140.925L135.523 78.6016V82.6925L140.52 79.5604H140.648V97H145.261V75.1818Z" fill="white"/>
<path d="M227.768 171H243.322V167.229H234.161V167.08L237.346 163.958C241.831 159.867 243.035 157.822 243.035 155.339C243.035 151.558 239.945 148.884 235.268 148.884C230.688 148.884 227.545 151.621 227.555 155.904H231.934C231.923 153.816 233.244 152.538 235.237 152.538C237.154 152.538 238.582 153.731 238.582 155.648C238.582 157.385 237.516 158.578 235.535 160.485L227.768 167.676V171Z" fill="white"/>
<path d="M334.833 246.298C339.734 246.298 343.239 243.603 343.228 239.874C343.239 237.158 341.513 235.219 338.306 234.814V234.643C340.746 234.207 342.429 232.481 342.418 230.031C342.429 226.589 339.414 223.884 334.897 223.884C330.423 223.884 327.056 226.504 326.992 230.276H331.413C331.467 228.614 332.99 227.538 334.876 227.538C336.74 227.538 337.987 228.667 337.976 230.308C337.987 232.023 336.527 233.184 334.428 233.184H332.393V236.572H334.428C336.9 236.572 338.445 237.808 338.434 239.565C338.445 241.302 336.953 242.495 334.844 242.495C332.809 242.495 331.286 241.43 331.2 239.832H326.555C326.63 243.646 330.039 246.298 334.833 246.298Z" fill="white"/>
</svg>
