<svg width="348" height="351" viewBox="0 0 348 351" fill="none" xmlns="http://www.w3.org/2000/svg">
<rect x="74" width="80" height="320" rx="40" fill="#2447A2"/>
<rect x="169" y="87" width="80" height="233" rx="40" fill="#2447A2"/>
<rect x="268" y="165" width="80" height="155" rx="40" fill="#2447A2"/>
<rect x="48" y="268" width="83" height="83" rx="13" fill="#F2C75C"/>
<rect x="146.5" y="267.5" width="44.46" height="44.46" rx="7.5" stroke="#F2C75C" stroke-width="7"/>
<rect x="3.5" y="210.5" width="44.46" height="44.46" rx="7.5" stroke="#F2C75C" stroke-width="7"/>
<rect x="99" y="205" width="51.46" height="51.46" rx="11" fill="#F2C75C"/>
<rect x="72.5" y="181.5" width="26.9052" height="26.9052" rx="5.5" stroke="#F2C75C" stroke-width="5"/>
<rect x="140.5" y="167.5" width="26.9052" height="26.9052" rx="5.5" stroke="#F2C75C" stroke-width="5"/>
<rect x="93" y="133" width="31.9052" height="31.9052" rx="8" fill="#F2C75C"/>
<rect x="38" y="149" width="31.9052" height="31.9052" rx="8" fill="#F2C75C"/>
<path d="M118.261 44.1818H113.925L108.523 47.6016V51.6925L113.52 48.5604H113.648V66H118.261V44.1818Z" fill="white"/>
<path d="M200.768 140H216.322V136.229H207.161V136.08L210.346 132.958C214.831 128.867 216.035 126.822 216.035 124.339C216.035 120.558 212.945 117.884 208.268 117.884C203.688 117.884 200.545 120.621 200.555 124.904H204.934C204.923 122.816 206.244 121.538 208.237 121.538C210.154 121.538 211.582 122.731 211.582 124.648C211.582 126.385 210.516 127.578 208.535 129.485L200.768 136.676V140Z" fill="white"/>
<path d="M307.833 215.298C312.734 215.298 316.239 212.603 316.228 208.874C316.239 206.158 314.513 204.219 311.306 203.814V203.643C313.746 203.207 315.429 201.481 315.418 199.031C315.429 195.589 312.414 192.884 307.897 192.884C303.423 192.884 300.056 195.504 299.992 199.276H304.413C304.467 197.614 305.99 196.538 307.876 196.538C309.74 196.538 310.987 197.667 310.976 199.308C310.987 201.023 309.527 202.184 307.428 202.184H305.393V205.572H307.428C309.9 205.572 311.445 206.808 311.434 208.565C311.445 210.302 309.953 211.495 307.844 211.495C305.809 211.495 304.286 210.43 304.2 208.832H299.555C299.63 212.646 303.039 215.298 307.833 215.298Z" fill="white"/>
</svg>
