<svg width="360" height="491" viewBox="0 0 360 491" fill="none" xmlns="http://www.w3.org/2000/svg">
<g clip-path="url(#clip0)">
<path fill-rule="evenodd" clip-rule="evenodd" d="M295.684 61.4631C298.16 64.0811 301.667 65.725 305.568 65.725C313.064 65.725 319.14 59.692 319.14 52.25C319.14 44.808 313.064 38.775 305.568 38.775V13.75C326.891 13.75 344.345 31.0788 344.345 52.25C344.345 73.4212 326.891 90.75 305.568 90.75C294.367 90.75 284.245 86.0453 277.345 78.5609L295.684 61.4631Z" fill="#D6E3F2"/>
<path fill-rule="evenodd" clip-rule="evenodd" d="M306.345 13.75V39.1C298.806 39.1 292.695 45.2113 292.695 52.75H267.345C267.345 31.3039 284.899 13.75 306.345 13.75Z" fill="#2992E5"/>
<path fill-rule="evenodd" clip-rule="evenodd" d="M293.053 51.75C293.053 56.1507 295.125 60.0624 298.345 62.5881L282.506 82.75C273.287 75.5318 267.345 64.3428 267.345 51.75H293.053Z" fill="#2992E5"/>
<path d="M25.3446 124.75C14.2989 124.75 5.3446 115.796 5.3446 104.75C5.3446 93.7043 14.2989 84.75 25.3446 84.75C36.3903 84.75 45.3446 93.7043 45.3446 104.75C45.3446 115.796 36.3903 124.75 25.3446 124.75Z" fill="#D6E3F2"/>
<path d="M295.845 332.75C288.389 332.75 282.345 326.706 282.345 319.25C282.345 311.794 288.389 305.75 295.845 305.75C303.3 305.75 309.345 311.794 309.345 319.25C309.345 326.706 303.3 332.75 295.845 332.75Z" fill="#2992E5"/>
<path d="M219.845 117.75C212.389 117.75 206.345 111.706 206.345 104.25C206.345 96.7942 212.389 90.75 219.845 90.75C227.3 90.75 233.345 96.7942 233.345 104.25C233.345 111.706 227.3 117.75 219.845 117.75Z" fill="#2992E5"/>
<path d="M246.845 312.75C239.389 312.75 233.345 306.706 233.345 299.25C233.345 291.794 239.389 285.75 246.845 285.75C254.3 285.75 260.345 291.794 260.345 299.25C260.345 306.706 254.3 312.75 246.845 312.75Z" fill="#2992E5"/>
<path d="M197.845 221.75C187.627 221.75 179.345 213.467 179.345 203.25C179.345 193.033 187.627 184.75 197.845 184.75C208.062 184.75 216.345 193.033 216.345 203.25C216.345 213.467 208.062 221.75 197.845 221.75Z" fill="#D6E3F2"/>
<path d="M59.3446 147.75C44.4329 147.75 32.3446 135.662 32.3446 120.75C32.3446 105.838 44.4329 93.75 59.3446 93.75C74.2563 93.75 86.3446 105.838 86.3446 120.75C86.3446 135.662 74.2563 147.75 59.3446 147.75Z" fill="#2992E5"/>
<path d="M322.845 285.75C315.389 285.75 309.345 279.706 309.345 272.25C309.345 264.794 315.389 258.75 322.845 258.75C330.3 258.75 336.345 264.794 336.345 272.25C336.345 279.706 330.3 285.75 322.845 285.75Z" fill="#D6E3F2"/>
<path d="M350.845 341.75C345.598 341.75 341.345 337.497 341.345 332.25C341.345 327.003 345.598 322.75 350.845 322.75C356.091 322.75 360.345 327.003 360.345 332.25C360.345 337.497 356.091 341.75 350.845 341.75Z" fill="#D6E3F2"/>
<path d="M246.345 257.75C240.822 257.75 236.345 253.273 236.345 247.75C236.345 242.227 240.822 237.75 246.345 237.75C251.867 237.75 256.345 242.227 256.345 247.75C256.345 253.273 251.867 257.75 246.345 257.75Z" fill="#D6E3F2"/>
<path d="M156.345 235.75C146.956 235.75 139.345 228.139 139.345 218.75C139.345 209.361 146.956 201.75 156.345 201.75C165.733 201.75 173.345 209.361 173.345 218.75C173.345 228.139 165.733 235.75 156.345 235.75Z" fill="#D6E3F2"/>
<path d="M149.345 164.75C139.956 164.75 132.345 157.139 132.345 147.75C132.345 138.361 139.956 130.75 149.345 130.75C158.733 130.75 166.345 138.361 166.345 147.75C166.345 157.139 158.733 164.75 149.345 164.75Z" fill="#D6E3F2"/>
<path d="M282.345 237.75C272.956 237.75 265.345 230.139 265.345 220.75C265.345 211.361 272.956 203.75 282.345 203.75C291.733 203.75 299.345 211.361 299.345 220.75C299.345 230.139 291.733 237.75 282.345 237.75Z" fill="#2992E5"/>
<path d="M98.3446 195.75C87.2989 195.75 78.3446 186.796 78.3446 175.75C78.3446 164.704 87.2989 155.75 98.3446 155.75C109.39 155.75 118.345 164.704 118.345 175.75C118.345 186.796 109.39 195.75 98.3446 195.75Z" fill="#2992E5"/>
<path fill-rule="evenodd" clip-rule="evenodd" d="M180.983 144.222C174.6 156.151 175.358 186.409 183.608 188.541C186.898 189.391 193.907 187.308 201.04 182.998L196.563 214.755H223.001L213.9 172.224C218.976 166.251 222.411 158.931 221.837 150.729C220.183 127.094 187.367 132.293 180.983 144.222Z" fill="#EAC7A8"/>
<path fill-rule="evenodd" clip-rule="evenodd" d="M215.931 177.546C219.249 162.746 228.702 152.657 227.258 146.042C226.296 141.632 223.73 138.889 219.562 137.815C217.407 129.071 210.454 125.353 198.705 126.658C181.081 128.617 170.324 135.954 174.97 152.101C179.24 152.101 184.395 150.552 191.523 153.205C193.785 154.047 195.402 156.657 196.376 161.035H199.597C202.723 155.839 205.806 153.93 208.845 155.307C211.884 156.684 212.574 160.03 210.917 165.343L212.504 177.546H215.931Z" fill="#181658"/>
<path fill-rule="evenodd" clip-rule="evenodd" d="M270.784 352.805H185.683L174.532 489.75H301.212L270.784 352.805Z" fill="#2992E5"/>
<path fill-rule="evenodd" clip-rule="evenodd" d="M270.784 352.805H244.61L228.945 489.75H301.212L270.784 352.805Z" fill="black" fill-opacity="0.1"/>
<path fill-rule="evenodd" clip-rule="evenodd" d="M88.6607 329.344L88.3436 329.158C79.2373 324.044 64.3653 330.989 64.3757 338.711C64.4069 362.085 85.6835 472.247 86.7944 479.211C87.9053 486.175 99.8056 488.014 100.499 479.233C101.601 465.262 103.65 416.897 101.6 394.51C100.754 385.268 99.8428 376.467 98.9456 368.615C110.108 388.828 127.376 417.77 150.746 455.441L163.432 449.63C153.47 416.723 145.301 393.492 138.926 379.936C128.009 356.725 117.774 336.848 113.466 329.847C106.689 318.833 94.8929 322.676 88.6607 329.344Z" fill="#EAC7A8"/>
<path fill-rule="evenodd" clip-rule="evenodd" d="M162.525 431.356L118.983 327.942C108.552 311.119 79.3061 331.365 82.8633 341.122C90.9393 363.274 132.012 434.988 134.418 441.588L162.525 431.356Z" fill="#1D387E"/>
<path fill-rule="evenodd" clip-rule="evenodd" d="M164.943 443.109C167.656 445.347 169.42 447.176 170.237 448.594C171.23 450.318 172.393 453.001 173.725 456.642C171.729 457.797 153.794 468.179 119.919 487.787C115.852 483.962 115.218 480.993 118.018 478.879C120.817 476.766 123.128 474.984 124.949 473.533L143.521 447.879C143.878 447.385 144.567 447.276 145.059 447.634C145.068 447.64 145.076 447.646 145.084 447.653L148.943 450.632C152.483 450.322 155.125 449.663 156.868 448.653C158.285 447.833 159.911 446.127 161.747 443.535L161.747 443.535C162.451 442.541 163.826 442.307 164.818 443.013C164.861 443.043 164.903 443.075 164.943 443.109Z" fill="#2992E5"/>
<path fill-rule="evenodd" clip-rule="evenodd" d="M103.285 473.628C104.517 476.926 105.134 479.394 105.134 481.032C105.134 483.023 104.803 485.929 104.141 489.75C101.836 489.75 81.1263 489.75 42.0106 489.75C40.396 484.399 41.3281 481.51 44.8066 481.083C48.2852 480.657 51.1749 480.271 53.4757 479.927L82.3532 467.021C82.9089 466.772 83.5602 467.022 83.8079 467.58C83.8121 467.589 83.8162 467.599 83.8202 467.608L85.6764 472.123C88.8966 473.629 91.5134 474.382 93.5267 474.382C95.1625 474.382 97.4215 473.72 100.304 472.395V472.395C101.41 471.887 102.718 472.374 103.225 473.483C103.246 473.53 103.267 473.579 103.285 473.628Z" fill="#2992E5"/>
<path fill-rule="evenodd" clip-rule="evenodd" d="M61.324 346.657C61.324 375.997 75.2221 444.437 75.2309 450.898L105.134 450.921C100.757 389.853 99.2048 358.989 100.478 358.332C102.387 357.345 178.745 365.975 201.646 365.975C234.669 365.975 248.33 345.097 249.438 306.42H184.021C170.701 307.849 101.224 321.899 75.4221 326.728C64.3757 328.796 61.324 338.574 61.324 346.657Z" fill="#2447A2"/>
<path fill-rule="evenodd" clip-rule="evenodd" d="M85.7942 241.711C81.0213 240.726 69.3722 232.04 67.365 233.804C64.3954 236.413 67.0433 244.424 70.163 248.41C75.9938 255.858 80.8215 258.406 92.7539 261.741C98.9927 263.485 105.738 266.981 112.99 272.228L113.946 255.331L97.1511 246.081C94.7946 237.091 91.9776 232.567 88.7001 232.511C86.1824 231.337 90.567 242.696 85.7942 241.711ZM114.701 203.205C117.785 208.693 120.782 214.604 119.211 216.294C117.64 217.985 113.722 215.623 111.848 218.432C110.599 220.305 117.292 223.263 131.927 227.307L159.71 252.81L173.829 237.617L135.594 216.622C129.236 209.052 122.971 203.173 116.8 198.984C114.915 198.195 111.617 197.717 114.701 203.205Z" fill="#DCAE92"/>
<mask id="mask0" mask-type="alpha" maskUnits="userSpaceOnUse" x="134" y="221" width="64" height="35">
<path fill-rule="evenodd" clip-rule="evenodd" d="M191.212 228.837C177.962 230.797 159.881 230.797 139.168 221.808L134.387 239.507C149.41 250.363 169.341 258.077 185.231 255.093C197.753 252.742 201.772 236.467 191.212 228.837Z" fill="white"/>
</mask>
<g mask="url(#mask0)">
<path fill-rule="evenodd" clip-rule="evenodd" d="M192.45 232.94C179.058 232.798 161.199 229.962 142.144 217.835L134.66 234.567C147.804 247.645 166.286 258.39 182.446 257.935C195.181 257.576 201.689 242.132 192.45 232.94Z" fill="#318036"/>
</g>
<mask id="mask1" mask-type="alpha" maskUnits="userSpaceOnUse" x="91" y="190" width="173" height="161">
<path fill-rule="evenodd" clip-rule="evenodd" d="M191.558 190.459C189.872 212.181 181.384 236.12 174.418 259.771C160.2 263.327 136.358 259.135 102.891 247.195C94.5899 264.413 90.7525 276.688 91.3788 284.02C120.092 299.057 144.701 305.76 164.975 306.201C164.322 318.257 165.786 329.734 170.705 340.221C180.817 361.777 240.025 341.814 259.933 345.743C272.4 305.152 248.295 288.655 248.276 262.682C248.254 234.239 225.475 190.459 222.123 190.459H191.558Z" fill="white"/>
</mask>
<g mask="url(#mask1)">
<path fill-rule="evenodd" clip-rule="evenodd" d="M191.558 190.459C189.872 212.181 181.384 236.12 174.418 259.771C160.2 263.327 136.358 259.135 102.891 247.195C94.5899 264.413 90.7525 276.688 91.3788 284.02C120.092 299.057 144.701 305.76 164.975 306.201C164.322 318.257 165.786 329.734 170.705 340.221C180.817 361.777 240.025 341.814 259.933 345.743C272.4 305.152 248.295 288.655 248.276 262.682C248.254 234.239 225.475 190.459 222.123 190.459H191.558Z" fill="#3A913F"/>
</g>
<path d="M18.3446 5.75H120.345C122.554 5.75 124.345 7.54086 124.345 9.75V17.75C124.345 19.9591 122.554 21.75 120.345 21.75H18.3446C16.1355 21.75 14.3446 19.9591 14.3446 17.75V9.75C14.3446 7.54086 16.1355 5.75 18.3446 5.75Z" fill="#2447A2"/>
<path d="M58.3446 29.75H120.345C122.554 29.75 124.345 31.5409 124.345 33.75V41.75C124.345 43.9591 122.554 45.75 120.345 45.75H58.3446C56.1355 45.75 54.3446 43.9591 54.3446 41.75V33.75C54.3446 31.5409 56.1355 29.75 58.3446 29.75Z" fill="#D6E3F2"/>
<path d="M42.3446 53.75H120.345C122.554 53.75 124.345 55.5409 124.345 57.75V65.75C124.345 67.9591 122.554 69.75 120.345 69.75H42.3446C40.1355 69.75 38.3446 67.9591 38.3446 65.75V57.75C38.3446 55.5409 40.1355 53.75 42.3446 53.75Z" fill="#D6E3F2"/>
<path d="M354.345 433.75C354.345 432.093 355.688 430.75 357.345 430.75C359.001 430.75 360.345 432.093 360.345 433.75V452.75C360.345 454.407 359.001 455.75 357.345 455.75C355.688 455.75 354.345 454.407 354.345 452.75V433.75Z" fill="#2992E5"/>
<path d="M340.345 417.75C340.345 416.093 341.688 414.75 343.345 414.75C345.001 414.75 346.345 416.093 346.345 417.75V452.75C346.345 454.407 345.001 455.75 343.345 455.75C341.688 455.75 340.345 454.407 340.345 452.75V417.75Z" fill="#2992E5"/>
<path d="M326.345 409.75C326.345 408.093 327.688 406.75 329.345 406.75C331.001 406.75 332.345 408.093 332.345 409.75V452.75C332.345 454.407 331.001 455.75 329.345 455.75C327.688 455.75 326.345 454.407 326.345 452.75V409.75Z" fill="#2992E5"/>
<path d="M312.345 417.75C312.345 416.093 313.688 414.75 315.345 414.75C317.001 414.75 318.345 416.093 318.345 417.75V452.75C318.345 454.407 317.001 455.75 315.345 455.75C313.688 455.75 312.345 454.407 312.345 452.75V417.75Z" fill="#2992E5"/>
<path d="M298.345 401.75C298.345 400.093 299.688 398.75 301.345 398.75C303.001 398.75 304.345 400.093 304.345 401.75V452.75C304.345 454.407 303.001 455.75 301.345 455.75C299.688 455.75 298.345 454.407 298.345 452.75V401.75Z" fill="#2447A2"/>
<path fill-rule="evenodd" clip-rule="evenodd" d="M60.3446 438.266C60.3446 422.035 47.2917 408.75 31.3446 408.75V438.266L51.1632 459.75C56.8008 454.498 60.3446 446.792 60.3446 438.266Z" fill="#D6E3F2"/>
<path fill-rule="evenodd" clip-rule="evenodd" d="M32.4524 437.75H3.3446C3.3446 445.32 6.41402 452.414 11.2663 457.569C16.6032 463.206 24.2032 466.75 32.4524 466.75C40.0509 466.75 47.0062 463.692 52.3446 458.858L32.4524 437.75Z" fill="#AFB9C5"/>
<path fill-rule="evenodd" clip-rule="evenodd" d="M2.3446 437.75C2.3446 421.803 15.3975 408.75 31.3446 408.75V437.75H2.3446ZM45.8446 408.75L34.2446 434.85L60.3446 423.25C57.7636 416.484 51.968 411.331 45.8446 408.75Z" fill="#8991DC"/>
<path d="M247.845 337.75C239.836 337.75 233.345 331.258 233.345 323.25C233.345 315.242 239.836 308.75 247.845 308.75C255.853 308.75 262.345 315.242 262.345 323.25C262.345 331.258 255.853 337.75 247.845 337.75Z" fill="#2992E5"/>
<path d="M205.345 246.75C201.479 246.75 198.345 243.616 198.345 239.75C198.345 235.884 201.479 232.75 205.345 232.75C209.211 232.75 212.345 235.884 212.345 239.75C212.345 243.616 209.211 246.75 205.345 246.75Z" fill="#D6E3F2"/>
<path d="M117.345 248.75C109.06 248.75 102.345 242.034 102.345 233.75C102.345 225.466 109.06 218.75 117.345 218.75C125.629 218.75 132.345 225.466 132.345 233.75C132.345 242.034 125.629 248.75 117.345 248.75Z" fill="#2992E5"/>
</g>
<defs>
<clipPath id="clip0">
<rect width="359.899" height="490.5" fill="white" transform="matrix(-1 0 0 1 359.899 0)"/>
</clipPath>
</defs>
</svg>
