<svg width="1250" height="1250" viewBox="0 0 1250 1250" fill="none" xmlns="http://www.w3.org/2000/svg">
<rect width="1250" height="1250" fill="white"/>
<mask id="path-1-inside-1" fill="white">
<path fill-rule="evenodd" clip-rule="evenodd" d="M1056.87 645.086C1057.03 642.875 1057.11 640.642 1057.11 638.39C1057.11 587.733 1016.05 546.667 965.39 546.667C914.733 546.667 873.668 587.733 873.668 638.39C873.668 640.556 873.743 642.704 873.89 644.832C861.079 641.075 847.524 639.059 833.497 639.059C758.875 639.059 697.577 696.108 690.837 768.97C661.109 777.433 639.339 804.791 639.339 837.234C639.339 876.429 671.113 908.202 710.307 908.202C724.175 908.202 737.114 904.225 748.044 897.348C771.902 915.103 801.473 925.61 833.497 925.61C865.922 925.61 895.831 914.838 919.842 896.679C939.342 906.616 961.42 912.219 984.806 912.219C1015 912.219 1043.01 902.881 1066.11 886.935C1080.9 917.736 1112.38 939 1148.84 939C1199.49 939 1240.56 897.934 1240.56 847.277C1240.56 796.62 1199.49 755.554 1148.84 755.554C1141.55 755.554 1134.46 756.403 1127.67 758.008C1124.03 709.765 1096.5 668.19 1056.87 645.086Z"/>
</mask>
<path fill-rule="evenodd" clip-rule="evenodd" d="M1056.87 645.086C1057.03 642.875 1057.11 640.642 1057.11 638.39C1057.11 587.733 1016.05 546.667 965.39 546.667C914.733 546.667 873.668 587.733 873.668 638.39C873.668 640.556 873.743 642.704 873.89 644.832C861.079 641.075 847.524 639.059 833.497 639.059C758.875 639.059 697.577 696.108 690.837 768.97C661.109 777.433 639.339 804.791 639.339 837.234C639.339 876.429 671.113 908.202 710.307 908.202C724.175 908.202 737.114 904.225 748.044 897.348C771.902 915.103 801.473 925.61 833.497 925.61C865.922 925.61 895.831 914.838 919.842 896.679C939.342 906.616 961.42 912.219 984.806 912.219C1015 912.219 1043.01 902.881 1066.11 886.935C1080.9 917.736 1112.38 939 1148.84 939C1199.49 939 1240.56 897.934 1240.56 847.277C1240.56 796.62 1199.49 755.554 1148.84 755.554C1141.55 755.554 1134.46 756.403 1127.67 758.008C1124.03 709.765 1096.5 668.19 1056.87 645.086Z" fill="#D6E3F2"/>
<path d="M1056.87 645.086L1054.88 644.942L1054.79 646.185L1055.87 646.813L1056.87 645.086ZM873.89 644.832L873.328 646.752L876.084 647.56L875.886 644.694L873.89 644.832ZM690.837 768.97L691.385 770.894L692.702 770.519L692.829 769.154L690.837 768.97ZM748.044 897.348L749.239 895.744L748.139 894.926L746.98 895.655L748.044 897.348ZM919.842 896.679L920.75 894.897L919.634 894.328L918.636 895.084L919.842 896.679ZM1066.11 886.935L1067.91 886.069L1066.9 883.959L1064.97 885.289L1066.11 886.935ZM1127.67 758.008L1125.68 758.159L1125.85 760.493L1128.13 759.955L1127.67 758.008ZM1058.87 645.23C1059.03 642.971 1059.11 640.69 1059.11 638.39H1055.11C1055.11 640.594 1055.03 642.778 1054.88 644.942L1058.87 645.23ZM1059.11 638.39C1059.11 586.628 1017.15 544.667 965.39 544.667V548.667C1014.94 548.667 1055.11 588.837 1055.11 638.39H1059.11ZM965.39 544.667C913.629 544.667 871.668 586.628 871.668 638.39H875.668C875.668 588.837 915.838 548.667 965.39 548.667V544.667ZM871.668 638.39C871.668 640.602 871.744 642.796 871.895 644.971L875.886 644.694C875.741 642.612 875.668 640.509 875.668 638.39H871.668ZM874.453 642.913C861.461 639.103 847.716 637.059 833.497 637.059V641.059C847.331 641.059 860.697 643.047 873.328 646.752L874.453 642.913ZM833.497 637.059C757.832 637.059 695.68 694.904 688.846 768.786L692.829 769.154C699.474 697.311 759.918 641.059 833.497 641.059V637.059ZM690.29 767.047C659.725 775.748 637.339 803.874 637.339 837.234H641.339C641.339 805.709 662.493 779.119 691.385 770.894L690.29 767.047ZM637.339 837.234C637.339 877.533 670.008 910.202 710.307 910.202V906.202C672.217 906.202 641.339 875.324 641.339 837.234H637.339ZM710.307 910.202C724.563 910.202 737.869 906.112 749.109 899.041L746.98 895.655C736.358 902.337 723.787 906.202 710.307 906.202V910.202ZM746.85 898.953C771.041 916.955 801.028 927.61 833.497 927.61V923.61C801.917 923.61 772.763 913.25 749.239 895.744L746.85 898.953ZM833.497 927.61C866.373 927.61 896.703 916.687 921.049 898.274L918.636 895.084C894.96 912.99 865.472 923.61 833.497 923.61V927.61ZM984.806 910.219C961.743 910.219 939.975 904.694 920.75 894.897L918.934 898.461C938.709 908.538 961.097 914.219 984.806 914.219V910.219ZM1064.97 885.289C1042.19 901.012 1014.58 910.219 984.806 910.219V914.219C1015.42 914.219 1043.82 904.75 1067.24 888.581L1064.97 885.289ZM1148.84 937C1113.18 937 1082.38 916.203 1067.91 886.069L1064.3 887.801C1079.42 919.268 1111.59 941 1148.84 941V937ZM1238.56 847.277C1238.56 896.829 1198.39 937 1148.84 937V941C1200.6 941 1242.56 899.039 1242.56 847.277H1238.56ZM1148.84 757.554C1198.39 757.554 1238.56 797.724 1238.56 847.277H1242.56C1242.56 795.515 1200.6 753.554 1148.84 753.554V757.554ZM1128.13 759.955C1134.77 758.385 1141.71 757.554 1148.84 757.554V753.554C1141.4 753.554 1134.15 754.422 1127.21 756.062L1128.13 759.955ZM1055.87 646.813C1094.94 669.598 1122.09 710.594 1125.68 758.159L1129.66 757.858C1125.97 708.935 1098.05 666.782 1057.88 643.358L1055.87 646.813Z" fill="#D6E3F2" mask="url(#path-1-inside-1)"/>
<path fill-rule="evenodd" clip-rule="evenodd" d="M869.886 375.184C862.127 389.647 863.049 426.333 873.077 428.918C877.076 429.949 885.596 427.424 894.266 422.198L888.824 460.702H920.961L909.898 409.136C916.068 401.893 920.244 393.018 919.546 383.073C917.535 354.417 877.646 360.721 869.886 375.184Z" fill="#EAC7A8"/>
<path fill-rule="evenodd" clip-rule="evenodd" d="M855.649 355.134C856.315 352.795 858.105 350.792 860.517 350.198C861.102 350.054 861.706 349.996 862.308 350.02C862.524 350.029 862.584 350.091 862.685 349.94C862.76 349.828 862.762 349.555 862.793 349.423C862.888 349.014 863.008 348.61 863.156 348.217C863.661 346.874 864.509 345.687 865.532 344.686C867.444 342.814 870.029 341.522 872.713 341.288C874.183 341.16 875.642 341.399 877.031 341.877C877.75 342.125 878.448 342.433 879.127 342.773C879.331 342.876 879.995 343.378 880.2 343.346C880.427 343.31 880.882 342.746 881.067 342.605C883.345 340.857 886.158 340.17 888.996 340.19C892.199 340.215 895.283 340.375 897.954 342.327C898.52 342.74 899.058 343.193 899.571 343.67C899.841 343.92 900.103 344.181 900.352 344.452C900.503 344.615 900.649 344.783 900.79 344.954C901.03 345.246 900.991 345.342 901.326 345.138C902.612 344.357 904.102 343.992 905.602 344.176C906.493 344.286 907.36 344.553 908.183 344.906C908.463 345.025 909.112 345.504 909.411 345.508C909.707 345.513 910.347 345.07 910.652 344.957C912.301 344.348 914.078 344.198 915.811 344.479C917.598 344.77 919.354 345.483 920.868 346.468C921.597 346.942 922.232 347.468 922.743 348.173C922.963 348.477 923.162 348.799 923.412 349.081C923.559 349.246 923.848 349.416 923.927 349.625C923.88 349.5 925.882 348.728 926.07 348.679C927.077 348.416 928.102 348.469 929.087 348.793C930.94 349.403 932.534 350.771 933.844 352.173C934.516 352.893 935.105 353.689 935.605 354.537C935.844 354.944 936.063 355.361 936.263 355.788C936.361 355.995 936.425 356.254 936.553 356.44C936.718 356.68 936.829 356.684 937.127 356.789C938.644 357.32 940.026 358.22 941.079 359.435C942.144 360.664 942.835 362.178 943.125 363.773C943.142 363.867 943.152 364.256 943.207 364.307C943.282 364.377 943.587 364.346 943.703 364.359C944.102 364.406 944.499 364.476 944.89 364.568C945.612 364.739 946.314 364.991 946.978 365.319C949.568 366.601 951.42 369.003 952.326 371.706C953.277 374.542 953.261 377.792 952.124 380.576C951.94 381.026 951.722 381.462 951.465 381.875C951.308 382.128 951.257 382.129 951.359 382.395C951.473 382.691 951.681 382.978 951.817 383.267C952.259 384.21 952.568 385.211 952.763 386.233C953.083 387.909 953.241 389.67 952.926 391.359C952.779 392.143 952.523 392.91 952.134 393.608C951.935 393.965 951.703 394.302 951.44 394.615C951.304 394.777 951.159 394.932 951.008 395.08C950.921 395.165 950.807 395.239 950.734 395.334C950.554 395.565 950.516 395.375 950.609 395.714C950.739 396.188 951.032 396.656 951.212 397.117C951.398 397.593 951.565 398.075 951.718 398.561C952.029 399.547 952.291 400.55 952.455 401.57C952.77 403.53 952.715 405.617 951.788 407.416C951.392 408.185 950.824 408.86 950.134 409.384C949.797 409.641 949.431 409.863 949.048 410.044C948.851 410.138 948.599 410.178 948.509 410.369C948.412 410.573 948.556 410.98 948.589 411.209C948.874 413.202 949.017 415.295 948.424 417.247C947.879 419.046 946.677 420.634 945.118 421.686C942.092 423.725 938.014 423.61 934.834 421.977C934.006 421.552 933.23 421.023 932.539 420.4C930.778 422.771 927.154 422.696 924.58 422.02C921.373 421.179 918.8 418.949 917.317 416.019C915.29 418.487 911.036 417.686 909.63 415.009C909.286 414.354 909.082 413.632 908.982 412.901C908.929 412.517 908.962 412.129 908.923 411.748C908.872 411.262 908.548 410.79 908.361 410.32C907.998 409.406 907.772 408.461 907.763 407.474C907.757 406.959 907.823 406.457 907.872 405.947C907.916 405.487 907.788 405.058 907.716 404.604C908.538 404.74 909.54 404.518 910.315 404.279C911.075 404.045 911.788 403.429 912.324 402.866C913.57 401.559 914.332 399.846 914.852 398.14C915.995 394.397 915.527 389.907 911.762 387.853C910.008 386.896 904.754 386.899 902.665 387.372C900.469 387.869 897.979 392.715 897.857 393.171C897.781 393.453 897.819 393.802 897.56 393.989C896.991 394.402 896.052 393.686 895.632 393.332C894.908 392.721 894.391 391.909 893.943 391.086C892.968 389.292 892.182 387.368 891.627 385.404C891.199 383.89 890.925 382.329 890.365 380.853C889.809 379.385 888.931 378.073 887.566 377.241C886.081 376.336 884.38 375.86 882.75 375.291C881.134 374.728 879.547 374.039 878.294 372.843C878.019 372.58 877.752 372.301 877.53 371.991C877.355 371.747 877.182 371.279 876.915 371.124C876.501 370.883 875.896 371.51 875.538 371.738C873.77 372.861 872.295 374.427 871.105 376.138C869.922 377.839 868.951 379.477 868.162 381.377C867.577 382.786 867.212 384.59 866.183 385.745C865.723 386.261 862.308 386.573 861.202 386.123C860.095 385.673 858.856 384.504 858.484 383.771C858.104 383.021 858.013 382.197 858.176 381.377C858.271 380.894 858.466 380.442 858.573 379.968C858.663 379.57 858.745 379.193 858.939 378.828C859.306 378.136 859.934 377.639 860.691 377.431C859.903 376.705 859.25 375.835 858.798 374.864C858.329 373.854 857.931 372.627 857.818 371.519C857.726 370.619 857.868 369.686 858.361 368.913C858.877 368.102 859.793 367.572 860.585 367.066C859.375 366.119 858.339 364.968 857.488 363.693C855.832 361.214 854.808 358.09 855.649 355.134Z" fill="#4A312C"/>
<path fill-rule="evenodd" clip-rule="evenodd" d="M756.14 622.056C749.341 639.663 737.471 697.511 723.208 784.889L739.511 789.645C756.668 751.673 769.075 718.608 774.055 701.163C782.583 671.293 789.07 645.009 790.71 635.193C794.62 611.787 760.633 610.424 756.14 622.056ZM807.574 671.142C857.208 678.285 927.572 685.662 933.593 686.49C942.033 687.65 948.41 674.388 938.517 670.478C922.776 664.256 867.652 644.784 841.065 639.275C833.425 637.693 826.02 636.222 819.058 634.893C798.365 630.942 787.644 668.273 807.574 671.142Z" fill="#EAC7A8"/>
<path fill-rule="evenodd" clip-rule="evenodd" d="M881.376 571.841C799.003 592.831 756.91 606.283 755.098 612.196C755.078 612.262 755.059 612.328 755.043 612.394C755 612.445 754.961 612.498 754.922 612.551C738.597 635.002 728.821 744.61 725.612 752.818L756.893 757.484C768.859 713.112 807.144 682.2 806.127 629.056C806.401 627.497 806.471 626.019 806.358 624.621L891.502 581.277V571.841H881.376Z" fill="#191847"/>
<path fill-rule="evenodd" clip-rule="evenodd" d="M876.851 571.841C864.916 575.269 802.894 601.279 770.714 615.113C749.416 624.269 756.129 657.274 768.189 665.865C768.255 666.392 768.472 666.751 768.859 666.911C833.741 693.802 885.068 679.693 902.214 684.201L910.145 659.183L884.429 650.361C892.219 648.802 899.393 647.41 905.531 646.333C945.184 639.378 956.747 618.152 949.911 571.841H876.851Z" fill="#393F82"/>
<path fill-rule="evenodd" clip-rule="evenodd" d="M933.135 666.501C937.386 666.908 940.404 667.546 942.188 668.416C944.358 669.475 947.349 671.381 951.16 674.135C949.932 676.653 938.896 699.279 918.053 742.015C911.361 740.934 908.709 738.381 910.098 734.353C911.487 730.326 912.606 726.964 913.458 724.268L914.781 685.858C914.806 685.119 915.426 684.54 916.165 684.566C916.178 684.566 916.19 684.567 916.203 684.568L922.111 684.939C925.469 682.221 927.684 679.763 928.757 677.563C929.629 675.776 930.111 672.956 930.203 669.103L930.203 669.103C930.238 667.624 931.466 666.454 932.944 666.49C933.008 666.491 933.072 666.495 933.135 666.501Z" fill="#2447A2"/>
<path fill-rule="evenodd" clip-rule="evenodd" d="M747.319 782.605C748.817 786.604 749.566 789.596 749.566 791.581C749.566 793.996 749.164 797.519 748.359 802.152C745.558 802.152 720.384 802.152 672.836 802.152C670.873 795.664 672.006 792.161 676.235 791.644C680.463 791.126 683.976 790.659 686.773 790.242L721.875 774.593C722.55 774.292 723.342 774.596 723.643 775.271C723.648 775.283 723.653 775.294 723.658 775.306L725.915 780.779C729.829 782.606 733.01 783.519 735.457 783.519C737.445 783.519 740.191 782.716 743.695 781.11L743.695 781.11C745.04 780.493 746.629 781.084 747.245 782.428C747.272 782.486 747.297 782.545 747.319 782.605Z" fill="#2447A2"/>
<path fill-rule="evenodd" clip-rule="evenodd" d="M982.143 555.799L954.161 555.909C971.439 611.684 980.766 641.278 982.143 644.691C985.242 652.37 978.685 664.064 975.881 670.349C985.013 674.435 984.04 659.301 995.56 664.661C1006.08 669.553 1014.07 678.417 1026.22 670.921C1027.72 669.999 1029.35 666.529 1025.4 663.818C1015.55 657.062 1001.35 645.239 999.43 641.347C996.814 636.04 991.052 607.524 982.143 555.799ZM818.149 554.717L775.437 586.081C763.852 589.207 754.174 593.097 746.401 597.749C744.565 599.422 742.346 602.81 749.961 602.224C757.575 601.639 765.61 601.365 766.661 603.963C767.712 606.56 763.104 609.666 765.228 613.17C766.643 615.506 773.332 609.648 785.295 595.596L827.591 578.057L818.149 554.717Z" fill="#EAC7A8"/>
<path fill-rule="evenodd" clip-rule="evenodd" d="M902.623 438.383L891.044 436.397C848.084 473.509 830.439 544.805 777.78 582.573L790.454 598.283C881.807 586.972 904.45 500.009 902.623 438.383Z" fill="#C5CFD6"/>
<path fill-rule="evenodd" clip-rule="evenodd" d="M953.097 583.892C906.671 583.892 872.521 583.892 850.647 583.892C845.965 583.892 846.848 577.132 847.524 573.721C855.335 534.353 885.823 491.917 885.823 435.878L915.375 431.244C939.817 470.555 948.27 518.956 953.097 583.892Z" fill="#C7D1D9"/>
<path fill-rule="evenodd" clip-rule="evenodd" d="M917.599 431.244C916.601 431.244 915.687 431.306 914.856 431.431L905.6 431.96C879.057 521.916 871.737 581.933 883.639 612.011L964.276 612.014C969.053 623.153 973.625 632.526 977.991 640.131H999.963C1002.03 573.269 986.134 516.521 952.273 469.885C956.565 468.652 959.964 465.774 962.47 461.253C973.271 441.763 969.37 431.033 957.827 427.506C946.284 423.979 935.991 431.244 917.599 431.244Z" fill="#F2F2F2"/>
<path fill-rule="evenodd" clip-rule="evenodd" d="M934.351 612.011L964.276 612.012C958.703 599.017 952.85 583.617 946.717 565.813C944.181 587.03 940.059 602.43 934.351 612.011Z" fill="black" fill-opacity="0.1"/>
<path fill-rule="evenodd" clip-rule="evenodd" d="M68.6497 753.248C66.1983 743.035 64.8999 732.374 64.8999 721.409C64.8999 646.348 125.749 585.499 200.81 585.499C257.713 585.499 306.449 620.469 326.698 670.09C342.686 655.789 363.795 647.094 386.934 647.094C431.67 647.094 468.814 679.595 476.044 722.272C478.014 722.144 480.002 722.079 482.004 722.079C531.922 722.079 572.388 762.545 572.388 812.463C572.388 843.401 556.844 870.708 533.139 887.001C521.057 917.461 491.325 939 456.563 939C422.175 939 392.71 917.922 380.383 887.981C376.026 888.947 371.497 889.456 366.849 889.456C350.874 889.456 336.305 883.44 325.282 873.551C313.931 905.45 283.471 928.288 247.676 928.288C217.15 928.288 190.504 911.679 176.281 887.004C160.174 911.85 132.198 928.288 100.384 928.288C50.4662 928.288 10 887.822 10 837.904C10 799.153 34.3864 766.098 68.6497 753.248Z" fill="#D6E3F2"/>
<path fill-rule="evenodd" clip-rule="evenodd" d="M234.114 316.557C248.552 316.557 260.507 327.185 262.584 341.043C267.199 358.048 273.216 396.287 267.077 402.284H228.246L228.235 402.078C213.842 400.486 202.647 388.283 202.647 373.465V345.346C202.647 329.446 215.537 316.557 231.436 316.557H234.114Z" fill="#4A312C"/>
<path fill-rule="evenodd" clip-rule="evenodd" d="M257.739 334.144C265.499 348.607 264.577 385.293 254.548 387.878C250.549 388.909 242.03 386.384 233.359 381.157L238.801 419.661H206.665L217.727 368.095C211.557 360.853 207.382 351.977 208.08 342.032C210.09 313.377 249.98 319.681 257.739 334.144Z" fill="#B28B67"/>
<path fill-rule="evenodd" clip-rule="evenodd" d="M232.108 317.896C247.614 317.896 252.508 325.111 256.675 331.237C253.559 341.929 241.466 343.514 230.72 350.18C229.455 349.15 227.84 348.533 226.08 348.533C222.013 348.533 218.716 351.831 218.716 355.898C218.716 359.965 222.013 363.263 226.08 363.263C226.193 363.263 226.305 363.26 226.416 363.255C227.896 379.16 227.303 397.323 222.89 401.634H184.058C181.895 364.043 202.805 378.6 202.805 343.207C204.108 341.934 205.34 340.673 206.559 339.586L206.516 338.545C213.24 324.779 221.771 317.896 232.108 317.896Z" fill="#4A312C"/>
<path fill-rule="evenodd" clip-rule="evenodd" d="M425.138 746.383C398.738 714.145 380.875 690.245 371.549 674.683C355.582 648.038 342.513 624.328 338.388 615.272C328.554 593.674 361.03 583.561 368.38 593.635C379.504 608.882 403.262 656.86 439.654 737.568L425.138 746.383Z" fill="#B28B67"/>
<path fill-rule="evenodd" clip-rule="evenodd" d="M371.04 737.009L321.908 613.333C311.399 590.788 362.146 575.968 369.869 586.46C387.402 610.281 429.074 704.249 434.298 711.346L371.04 737.009Z" fill="#191847"/>
<path fill-rule="evenodd" clip-rule="evenodd" d="M240.185 712.207C249.755 698.246 284.567 651.278 303.528 631.844C308.977 626.26 314.293 620.9 319.322 615.905C334.268 601.059 364.031 626.012 349.113 639.535C311.959 673.212 257.75 718.674 253.221 722.728C246.873 728.409 234.17 720.981 240.185 712.207Z" fill="#B28B67"/>
<path fill-rule="evenodd" clip-rule="evenodd" d="M242.423 705.9C239.126 708.614 236.981 710.831 235.988 712.55C234.781 714.642 233.368 717.894 231.748 722.308C234.174 723.709 255.976 736.296 297.153 760.07C302.097 755.432 302.867 751.832 299.464 749.27C296.061 746.708 293.252 744.547 291.039 742.787L268.463 711.684C268.029 711.086 267.192 710.952 266.593 711.387C266.583 711.394 266.573 711.402 266.563 711.41L261.872 715.021C257.569 714.646 254.358 713.846 252.238 712.623C250.516 711.629 248.54 709.56 246.308 706.417L246.308 706.417C245.452 705.211 243.781 704.928 242.574 705.784C242.523 705.821 242.472 705.86 242.423 705.9Z" fill="#3A913F"/>
<path fill-rule="evenodd" clip-rule="evenodd" d="M413.782 741.565C412.284 745.564 411.535 748.556 411.535 750.541C411.535 752.956 411.937 756.479 412.741 761.112C415.543 761.112 440.717 761.112 488.265 761.112C490.227 754.624 489.094 751.121 484.866 750.604C480.637 750.086 477.125 749.619 474.328 749.202L439.226 733.553C438.55 733.252 437.758 733.556 437.457 734.231C437.452 734.243 437.447 734.254 437.442 734.266L435.186 739.739C431.272 741.566 428.091 742.479 425.643 742.479C423.655 742.479 420.909 741.676 417.406 740.07L417.406 740.07C416.061 739.453 414.471 740.044 413.855 741.388C413.829 741.446 413.804 741.505 413.782 741.565Z" fill="#3A913F"/>
<path fill-rule="evenodd" clip-rule="evenodd" d="M304.229 619.51C263.393 612.858 236.04 608.309 222.171 605.863C182.64 598.893 171.112 577.62 177.928 531.205H250.765C260.403 533.989 300.678 551.204 371.589 582.85C384.347 589.184 381.971 607.858 379.639 614.01C379.544 614.261 358.036 651.115 315.115 724.574L255.531 686.616L304.341 623.983C305.63 621.387 305.592 619.896 304.229 619.51Z" fill="#393F82"/>
<path fill-rule="evenodd" clip-rule="evenodd" d="M122.987 500.003L150.426 505.447C122.832 556.872 108.033 584.128 106.031 587.213C101.526 594.156 105.729 606.88 107.282 613.58C97.5408 615.848 101.382 601.186 89.0551 604.247C77.8033 607.041 68.2631 614.212 57.7712 604.541C56.4813 603.352 55.537 599.636 59.935 597.73C70.8919 592.981 87.0799 584.088 89.7048 580.636C93.2843 575.928 104.378 549.05 122.987 500.003ZM394.38 458.835L393.882 459.564C389.747 465.654 385.877 472.043 387.535 474.167C389.259 476.375 394.252 473.938 396.225 477.529C397.54 479.923 389.123 482.787 370.973 486.121L334.635 513.981L319.143 494.134L367.661 472.826C376.161 464.357 384.368 457.92 392.283 453.515C394.65 452.761 398.694 452.534 394.38 458.835Z" fill="#B28B67"/>
<path fill-rule="evenodd" clip-rule="evenodd" d="M225.003 397.343L236.581 395.357C261.801 419.821 272.092 478.595 288.899 486.375C304.79 493.73 327.315 486.613 354.091 477.002L362.29 495.322C337.963 521.642 286.135 543.878 265.127 531.184C231.539 510.889 223.785 438.399 225.003 397.343Z" fill="#2992E5"/>
<path fill-rule="evenodd" clip-rule="evenodd" d="M174.528 542.851C220.954 542.851 255.105 542.851 276.979 542.851C281.66 542.851 280.778 536.091 280.101 532.68C272.291 493.313 241.802 450.876 241.802 394.837L212.251 390.203C187.808 429.515 179.355 477.915 174.528 542.851Z" fill="#C7D1D9"/>
<path fill-rule="evenodd" clip-rule="evenodd" d="M222.046 390.203C248.575 480.636 255.889 540.892 243.987 570.971H151.765C153.224 548.961 157.903 525.684 164.311 502.989C143.426 540.665 125.87 567.788 111.645 584.361L90.1704 580.155C104.003 494.366 144.061 431.049 210.345 390.203L222.046 390.203Z" fill="#2992E5"/>
</svg>
