<svg width="177" height="204" viewBox="0 0 177 204" fill="none" xmlns="http://www.w3.org/2000/svg">
<circle cx="100.92" cy="68.0963" r="11.0653" stroke="black" stroke-width="3.1"/>
<circle cx="121.06" cy="48.8413" r="6.41832" stroke="black" stroke-width="3.0985"/>
<circle cx="135.667" cy="82.4822" r="6.41832" stroke="black" stroke-width="3.0985"/>
<circle cx="129.47" cy="121.877" r="6.41832" stroke="black" stroke-width="3.0985"/>
<circle cx="160.013" cy="88.6792" r="3.31982" fill="black" stroke="black" stroke-width="3.0985"/>
<circle cx="103.797" cy="101.958" r="3.31982" fill="black" stroke="black" stroke-width="3.0985"/>
<path d="M64.1804 92.6629L45.8107 76.7278M69.4921 88.4578L65.5083 59.9073M73.6972 90.4497L92.7309 75.8425M75.0251 98.8599L100.034 101.737M100.698 79.605L102.912 98.4173M130.356 84.9167L105.346 100.852M123.273 121.877L105.346 104.393M134.782 118.336L158.685 90.4497M139.43 87.1299L156.693 88.4578M150.496 54.153L159.127 86.0233M149.61 55.2596L139.208 77.3917M124.601 53.2677L132.347 76.9491M67.7215 55.7022L82.5501 46.1854M64.1804 53.2677L59.5326 37.9965M62.8524 57.0302L48.2452 65.883M41.8269 60.35L51.7864 36.6686M62.1885 28.9223L100.698 20.0695M101.805 21.6187L89.411 36.2259M92.7309 41.3163L114.863 47.0707M115.527 52.3824L109.551 60.1287M127.257 51.4971L147.619 53.2677M148.725 52.3824L104.682 20.0695" stroke="black" stroke-width="3.0985"/>
<circle cx="150.274" cy="53.7104" r="3.31982" fill="black" stroke="black" stroke-width="3.0985"/>
<circle cx="103.797" cy="19.1842" r="3.31982" fill="black" stroke="black" stroke-width="3.0985"/>
<circle cx="65.2868" cy="55.9236" r="3.31982" fill="black" stroke="black" stroke-width="3.0985"/>
<circle cx="69.7134" cy="95.7615" r="6.41832" stroke="black" stroke-width="3.0985"/>
<circle cx="39.1711" cy="69.6455" r="9.51683" stroke="black" stroke-width="3.0985"/>
<circle cx="56.4341" cy="32.4635" r="6.41832" stroke="black" stroke-width="3.0985"/>
<circle cx="86.0911" cy="41.3163" r="6.41832" stroke="black" stroke-width="3.0985"/>
<path d="M11.7272 122.32L13.2528 122.589C13.393 121.795 12.9001 121.026 12.1197 120.821L11.7272 122.32ZM15.2675 145.337L16.7982 145.576L16.855 145.213L16.7422 144.862L15.2675 145.337ZM66.3928 201.996V200.446H66.355L66.3173 200.448L66.3928 201.996ZM147.839 201.996V203.545H148.686L149.143 202.832L147.839 201.996ZM146.954 175.658L145.512 176.226L146.954 175.658ZM151.159 144.009L152.379 144.964L152.401 144.936L152.422 144.907L151.159 144.009ZM149.832 23.168L148.753 24.2802L149.832 23.168ZM69.0495 4.57685L69.4049 6.08477L69.0495 4.57685ZM0.660947 110.147C0.660947 110.662 0.848711 111.621 1.16716 112.686C1.50354 113.811 2.03448 115.218 2.81952 116.659C4.37753 119.52 7.04238 122.695 11.3346 123.819L12.1197 120.821C8.97554 119.998 6.88191 117.64 5.54054 115.177C4.87589 113.957 4.42191 112.755 4.1358 111.798C3.99302 111.321 3.89481 110.914 3.83361 110.606C3.76572 110.265 3.75945 110.125 3.75945 110.147H0.660947ZM10.2015 122.051C8.12374 133.825 12.4717 141.71 13.7929 145.812L16.7422 144.862C15.2599 140.259 11.3468 133.39 13.2528 122.589L10.2015 122.051ZM13.7369 145.098C12.5996 152.376 13.1286 161.855 19.4372 168.738L21.7213 166.644C16.3441 160.778 15.7222 152.463 16.7982 145.576L13.7369 145.098ZM19.4372 168.738C22.804 172.41 27.955 173.364 32.6258 173.511C34.9986 173.585 37.3511 173.453 39.4361 173.307C41.5639 173.158 43.3362 173.002 44.7033 173.002V169.904C43.1932 169.904 41.2417 170.075 39.2198 170.216C37.155 170.361 34.9317 170.483 32.7231 170.414C28.2312 170.273 24.1974 169.345 21.7213 166.644L19.4372 168.738ZM44.7033 173.002C47.6202 173.002 49.6885 173.212 51.2169 174.594C52.7586 175.988 54.1162 178.931 54.4434 185.474L57.538 185.319C57.2012 178.583 55.7923 174.554 53.2949 172.296C50.7841 170.026 47.5407 169.904 44.7033 169.904V173.002ZM54.4434 185.474C55.1301 199.209 62.24 203.749 66.4683 203.543L66.3173 200.448C64.4962 200.537 58.1792 198.142 57.538 185.319L54.4434 185.474ZM66.3928 203.545H147.839V200.446H66.3928V203.545ZM149.143 202.832C151.311 199.45 153.998 189.313 148.395 175.09L145.512 176.226C150.832 189.73 148.056 198.787 146.535 201.159L149.143 202.832ZM148.395 175.09C142.92 161.191 149.391 148.786 152.379 144.964L149.938 143.055C146.583 147.347 139.479 160.911 145.512 176.226L148.395 175.09ZM152.422 144.907C161.459 132.189 172.4 112.525 175.435 90.5153C178.483 68.42 173.547 44.0065 150.91 22.0558L148.753 24.2802C170.602 45.4664 175.294 68.8583 172.366 90.0919C169.426 111.411 158.787 130.599 149.896 143.112L152.422 144.907ZM23.5011 33.3673C15.3541 45.4367 13.2756 61.4156 13.2756 82.2609H16.3741C16.3741 61.4766 18.4848 46.3369 26.0693 35.1008L23.5011 33.3673ZM150.91 22.0558C132.905 4.59685 100.12 -4.33856 68.694 3.06892L69.4049 6.08477C99.9488 -1.11476 131.609 7.65557 148.753 24.2802L150.91 22.0558ZM68.694 3.06892C43.0007 9.12513 31.5314 21.4707 23.5011 33.3673L26.0693 35.1008C33.7704 23.6919 44.637 11.9228 69.4049 6.08477L68.694 3.06892ZM13.2756 82.2609C13.2756 84.9991 12.5141 86.9657 11.1162 88.9878C9.63867 91.1252 7.56205 93.1907 4.81483 96.2814L7.13072 98.3399C9.69495 95.4551 12.0444 93.0941 13.665 90.7498C15.3653 88.2902 16.3741 85.7197 16.3741 82.2609H13.2756ZM4.81483 96.2814C1.92659 99.5309 0.871281 102.769 0.561315 105.372C0.407579 106.663 0.43906 107.779 0.50673 108.637C0.54038 109.063 0.583346 109.429 0.615144 109.702C0.631556 109.843 0.64368 109.949 0.651976 110.035C0.660854 110.127 0.660947 110.155 0.660947 110.147H3.75945C3.75945 109.896 3.7197 109.575 3.6929 109.344C3.66074 109.068 3.62419 108.755 3.59563 108.393C3.53887 107.674 3.5151 106.771 3.63808 105.738C3.88155 103.693 4.70753 101.066 7.13072 98.3399L4.81483 96.2814Z" fill="black"/>
</svg>
