<svg width="1008" height="897" viewBox="0 0 1008 897" fill="none" xmlns="http://www.w3.org/2000/svg">
<rect width="1008" height="897" fill="white"/>
<rect x="156.942" y="630.561" width="670.115" height="206.003" rx="14" fill="#D6E3F2"/>
<rect x="156.942" y="92.5303" width="670.115" height="206.003" rx="14" fill="#D6E3F2"/>
<mask id="path-3-inside-1" fill="white">
<path fill-rule="evenodd" clip-rule="evenodd" d="M611.361 85.2593H373.852V210.58C373.852 210.613 373.852 210.646 373.852 210.678C373.852 210.711 373.852 210.744 373.852 210.777V211.285H373.861C374.687 236.771 427.535 257.332 492.606 257.332C557.677 257.332 610.525 236.771 611.351 211.285H611.361V85.2593Z"/>
</mask>
<path fill-rule="evenodd" clip-rule="evenodd" d="M611.361 85.2593H373.852V210.58C373.852 210.613 373.852 210.646 373.852 210.678C373.852 210.711 373.852 210.744 373.852 210.777V211.285H373.861C374.687 236.771 427.535 257.332 492.606 257.332C557.677 257.332 610.525 236.771 611.351 211.285H611.361V85.2593Z" fill="#2447A2"/>
<path d="M373.852 85.2593V84.2593H372.852V85.2593H373.852ZM611.361 85.2593H612.361V84.2593H611.361V85.2593ZM373.852 210.58L374.852 210.585V210.58H373.852ZM373.852 210.777H374.852L374.852 210.772L373.852 210.777ZM373.852 211.285H372.852V212.285H373.852V211.285ZM373.861 211.285L374.861 211.252L374.829 210.285H373.861V211.285ZM611.351 211.285V210.285H610.383L610.351 211.252L611.351 211.285ZM611.361 211.285V212.285H612.361V211.285H611.361ZM373.852 86.2593H611.361V84.2593H373.852V86.2593ZM374.852 210.58V85.2593H372.852V210.58H374.852ZM374.852 210.678C374.852 210.647 374.852 210.616 374.852 210.585L372.852 210.575C372.852 210.609 372.852 210.644 372.852 210.678H374.852ZM374.852 210.772C374.852 210.741 374.852 210.71 374.852 210.678H372.852C372.852 210.713 372.852 210.748 372.852 210.782L374.852 210.772ZM374.852 211.285V210.777H372.852V211.285H374.852ZM373.861 210.285H373.852V212.285H373.861V210.285ZM492.606 256.332C460.163 256.332 430.811 251.205 409.504 242.934C398.847 238.797 390.25 233.892 384.284 228.49C378.318 223.088 375.056 217.261 374.861 211.252L372.862 211.317C373.08 218.052 376.734 224.352 382.942 229.973C389.15 235.594 397.987 240.609 408.78 244.798C430.37 253.179 459.978 258.332 492.606 258.332V256.332ZM610.351 211.252C610.157 217.261 606.895 223.088 600.928 228.49C594.962 233.892 586.365 238.797 575.709 242.934C554.401 251.205 525.049 256.332 492.606 256.332V258.332C525.234 258.332 554.842 253.179 576.432 244.798C587.225 240.609 596.062 235.594 602.27 229.973C608.478 224.352 612.132 218.052 612.35 211.317L610.351 211.252ZM611.361 210.285H611.351V212.285H611.361V210.285ZM610.361 85.2593V211.285H612.361V85.2593H610.361Z" fill="white" mask="url(#path-3-inside-1)"/>
<path d="M610.861 84.6536C610.861 90.9099 607.635 96.9231 601.688 102.447C595.74 107.971 587.106 112.969 576.395 117.177C554.977 125.592 525.353 130.807 492.606 130.807C459.859 130.807 430.236 125.592 408.817 117.177C398.106 112.969 389.472 107.971 383.524 102.447C377.577 96.9231 374.352 90.9099 374.352 84.6536C374.352 78.3973 377.577 72.3841 383.524 66.8603C389.472 61.3358 398.106 56.3377 408.817 52.1299C430.236 43.7154 459.859 38.5 492.606 38.5C525.353 38.5 554.977 43.7154 576.395 52.1299C587.106 56.3377 595.74 61.3358 601.688 66.8603C607.635 72.3841 610.861 78.3973 610.861 84.6536Z" fill="#D6E3F2" stroke="white"/>
<path d="M372.64 85.2597C374.659 101.821 402.328 131.671 492 130.701C581.672 129.732 609.745 99.3971 611.966 84.6538" stroke="white" stroke-width="3"/>
<path d="M372.64 131.913C374.659 148.474 402.328 178.324 492 177.355C581.672 176.385 609.745 146.05 611.966 131.307" stroke="white" stroke-width="2"/>
<path d="M373.852 177.961C375.871 194.522 403.54 224.372 493.212 223.403C582.884 222.433 610.957 192.098 613.178 177.355" stroke="white" stroke-width="2"/>
<rect x="382.122" y="579.455" width="256.109" height="153.108" rx="4" fill="#2447A2" stroke="white" stroke-width="2"/>
<rect x="390.816" y="592.996" width="235.086" height="124.813" fill="#D6E3F2"/>
<rect x="290.451" y="724.08" width="51.683" height="69.8597" rx="6" fill="#2447A2" stroke="#2447A2" stroke-width="2"/>
<rect x="291.45" y="732.351" width="49.683" height="60.5891" rx="5" fill="#D6E3F2"/>
<circle cx="316.292" cy="728.11" r="1.81767" fill="#D6E3F2"/>
<path d="M391.337 788.91L405.935 763.645H609.56L623.596 788.91H391.337Z" fill="#D6E3F2" stroke="white" stroke-width="2"/>
<rect x="647.002" y="759.51" width="24.4474" height="36.5652" rx="9.5" fill="#D6E3F2" stroke="white"/>
<rect x="656.696" y="765.569" width="3.84713" height="7.48247" rx="1.92356" fill="#D6E3F2" stroke="white"/>
<path d="M659.226 759.616V692.362C660.033 685.091 656.802 670.55 637.414 670.55" stroke="white"/>
<rect x="457.464" y="609.961" width="89.6718" height="16.9649" fill="white"/>
<rect x="492.606" y="630.561" width="89.6718" height="16.9649" fill="white"/>
<rect x="425.958" y="653.585" width="89.6718" height="16.9649" fill="white"/>
<rect x="463.523" y="676.609" width="89.6718" height="16.9649" fill="white"/>
<path d="M302.962 754.739C302.962 753.082 304.305 751.739 305.962 751.739H325.409C327.066 751.739 328.409 753.082 328.409 754.739V765.704C328.409 767.361 327.066 768.704 325.409 768.704H315.686H310.015C309.56 768.704 309.111 768.808 308.702 769.007L301.837 772.347C301.134 772.689 300.367 772.011 300.621 771.271L301.583 768.474C302.496 765.818 302.962 763.03 302.962 760.222V760.222V754.739Z" fill="white"/>
<rect x="158.154" y="361.545" width="670.115" height="206.003" rx="14" fill="#D6E3F2"/>
<circle cx="655.591" cy="439.705" r="16.359" fill="#2447A2"/>
<circle cx="655.59" cy="487.295" r="9.41885" fill="#2447A2"/>
<circle cx="722.018" cy="435.739" r="9.41885" fill="#2447A2"/>
<circle cx="753.249" cy="487.791" r="11.8975" fill="#2447A2"/>
<circle cx="700.702" cy="471.928" r="11.8975" fill="#2447A2"/>
<rect x="278.121" y="428.193" width="16.9649" height="71.4951" rx="8.48247" fill="#2447A2"/>
<rect x="301.145" y="441.522" width="16.9649" height="58.1655" rx="8.48247" fill="#2447A2"/>
<rect x="255.097" y="458.487" width="16.9649" height="41.2006" rx="8.48247" fill="#2447A2"/>
<path d="M496.847 491.206L524.112 463.941L496.847 436.676" stroke="#2447A2" stroke-width="6" stroke-linecap="round" stroke-linejoin="round"/>
<path d="M460.494 436.676L433.229 463.941L460.494 491.206" stroke="#2447A2" stroke-width="6" stroke-linecap="round" stroke-linejoin="round"/>
<path d="M156.942 465.759H117C85.5198 465.759 60 491.279 60 522.759V694.739C60 726.219 85.5198 751.739 117 751.739H156.942" stroke="#2992E5" stroke-width="3"/>
<path d="M827.058 185.837H867C898.48 185.837 924 211.357 924 242.837V420.877C924 452.357 898.48 477.877 867 477.877H827.058" stroke="#2992E5" stroke-width="3"/>
</svg>
